<svg viewBox="0 0 104 45" xmlns="http://www.w3.org/2000/svg" xmlns:xlink="http://www.w3.org/1999/xlink" width="104.000000" height="45.000000" fill="none">
	<rect id="ARAL" width="104.000000" height="45.000000" x="0.000000" y="0.000000" fill="rgb(255,255,255)" fill-opacity="0" />
	<path id="Vector" d="M0 43.9121L3.09519 40.8972L18.2864 0.902344L22.7848 0.902344L38.151 40.7125L41.3072 43.9079L41.3072 44.3907L29.2111 44.3907L29.1542 43.9079L31.139 40.893L27.8689 32.1466L10.9857 32.1466L7.77255 40.9518L9.70043 43.9079L9.64349 44.3907L0 44.3907L0 43.9079L0 43.9121ZM26.4088 28.229L19.2788 9.28762L12.3848 28.229L26.4088 28.229Z" fill="rgb(0,0,0)" fill-rule="nonzero" />
	<path id="Vector" d="M43.4709 43.9131L45.5168 41.0788L45.5168 17.8545L43.4709 14.7767L43.4709 14.2938L51.5323 12.7864L51.5323 19.4837C52.3091 17.3129 53.4317 15.6039 54.8918 14.3568C56.352 13.1097 58.0358 12.4883 59.9474 12.4883C60.8056 12.4883 61.4849 12.5681 61.9933 12.7276L61.5825 18.8203C60.7243 18.5389 59.8498 18.3962 58.955 18.3962C56.9702 18.3962 55.3514 19.089 54.1068 20.4789C52.8582 21.8645 52.0041 23.5441 51.5363 25.5176L51.5363 41.0201L54.2817 43.9173L54.2817 44.4002L43.4709 44.4002L43.4709 43.9173L43.4709 43.9131Z" fill="rgb(0,0,0)" fill-rule="nonzero" />
	<path id="Vector" d="M65.7311 42.678C63.9781 41.1286 63.1036 39.088 63.1036 36.556C63.1036 31.4879 66.63 28.2337 73.6785 26.7851L82.3255 25.0341L82.3255 22.5022C82.3255 20.3733 81.7602 18.7021 80.6295 17.497C79.4988 16.2919 78.0183 15.6873 76.188 15.6873C74.2032 15.6873 72.5966 16.3507 71.3683 17.6776C70.14 19.0044 69.5259 20.915 69.5259 23.4091L63.6242 22.0235C64.0147 19.248 65.3366 16.968 67.598 15.1792C69.8553 13.3905 72.739 12.4961 76.245 12.4961C79.9828 12.4961 82.9356 13.4912 85.0954 15.4815C87.2591 17.4718 88.337 20.2557 88.337 23.8374L88.337 40.8473L90.3828 43.9251L90.3828 44.408L82.3215 44.408L82.3215 39.0376C81.386 40.9271 80.0926 42.3967 78.4372 43.4423C76.7819 44.4878 74.8621 45.0127 72.6821 45.0127C69.7984 45.0127 67.48 44.2401 65.7311 42.6906L65.7311 42.678ZM70.7257 39.5079C71.6774 40.4316 72.9546 40.8935 74.553 40.8935C76.5012 40.8935 78.1444 40.2805 79.4907 39.0544C80.8329 37.8283 81.7765 36.2495 82.3255 34.318L82.3255 27.986L75.7244 29.3716C71.4375 30.4591 69.2981 32.651 69.2981 35.9472C69.2981 37.3958 69.774 38.5799 70.7298 39.5079L70.7257 39.5079Z" fill="rgb(0,0,0)" fill-rule="nonzero" />
	<path id="Vector" d="M104 43.9125L104 44.3954L93.8928 44.3954L93.8928 43.9125L95.9387 41.0782L95.9387 5.06812L93.8928 1.9903L93.8928 1.50742L101.954 0L101.954 41.0782L104 43.9125Z" fill="rgb(0,0,0)" fill-rule="nonzero" />
</svg>
