<svg viewBox="0 0 167 42" xmlns="http://www.w3.org/2000/svg" xmlns:xlink="http://www.w3.org/1999/xlink" width="167.000000" height="42.000000" fill="none">
	<rect id="SCHOOL" width="167.000000" height="42.000000" x="0.000000" y="0.000000" fill="rgb(255,255,255)" fill-opacity="0" />
	<path id="Vector" d="M6.3275 40.8098C4.45105 40.0152 2.98718 38.9403 1.93589 37.5776C0.88064 36.2187 0.237966 34.7254 0.00390625 33.0977L5.21671 31.3396L5.45077 31.3396C5.76417 33.2282 6.57346 34.6947 7.88261 35.7311C9.19176 36.7714 10.858 37.2897 12.8891 37.2897C14.5672 37.2897 15.916 36.902 16.9316 36.1265C17.9472 35.3511 18.455 34.3223 18.455 33.0363C18.455 31.0709 17.1062 29.7503 14.4125 29.067L8.61256 27.7618C6.34733 27.2321 4.51452 26.4029 3.1062 25.2666C1.69787 24.1304 0.995687 22.376 0.995687 19.996C0.995687 18.4106 1.46381 16.9634 2.40005 15.6582C3.33629 14.353 4.64544 13.3242 6.32353 12.568C8.00163 11.8117 9.89791 11.4355 12.0045 11.4355C15.1266 11.4355 17.7171 12.1457 19.7641 13.5622C21.8151 14.9787 23.1124 16.8405 23.6599 19.1438L18.3876 20.6755L18.1535 20.6755C17.8798 19.163 17.1855 17.9845 16.0747 17.1323C14.9639 16.2801 13.6032 15.8578 12.0045 15.8578C10.4057 15.8578 9.24333 16.2263 8.28329 16.9634C7.32721 17.7004 6.84719 18.5795 6.84719 19.6006C6.84719 20.5066 7.18043 21.2359 7.84294 21.781C8.50545 22.33 9.44566 22.7561 10.6556 23.0555L15.8684 24.3031C18.6018 24.9442 20.7004 25.8732 22.1643 27.0785C23.6281 28.2878 24.362 30.2532 24.362 32.9749C24.362 34.6755 23.8741 36.2071 22.8982 37.5661C21.9223 38.925 20.5655 40.0037 18.8279 40.7983C17.0903 41.5929 15.1067 41.9883 12.8812 41.9883C10.3819 41.9883 8.19601 41.5929 6.31957 40.7983L6.3275 40.8098Z" fill="rgb(0,0,0)" fill-rule="nonzero" />
	<path id="Vector" d="M34.9107 40.073C32.6454 38.7908 30.888 36.9828 29.6384 34.6603C28.3887 32.3379 27.7659 29.6814 27.7659 26.6949C27.7659 23.7083 28.3887 21.0634 29.6384 18.7601C30.888 16.4569 32.6454 14.6603 34.9107 13.3743C37.1759 12.0883 39.7744 11.4473 42.7021 11.4473C46.1773 11.4473 49.1169 12.3263 51.517 14.0845C53.9171 15.8427 55.3731 18.2112 55.8809 21.1977L50.4935 22.1613L50.2595 22.1613C49.9064 20.4223 49.0495 19.0058 47.6808 17.9118C46.3122 16.8177 44.6738 16.2688 42.7616 16.2688C40.0282 16.2688 37.8225 17.2246 36.1405 19.1325C34.4624 21.0404 33.6213 23.5624 33.6213 26.6987C33.6213 29.835 34.4624 32.3647 36.1405 34.2956C37.8186 36.2227 40.0243 37.1862 42.7616 37.1862C44.7928 37.1862 46.4907 36.6296 47.8593 35.5125C49.224 34.3993 50.1047 32.8215 50.4935 30.7793L56.1149 31.8004C55.4881 34.9751 53.9767 37.4703 51.5765 39.2822C49.1764 41.0941 46.217 42.0039 42.7021 42.0039C39.7744 42.0039 37.1759 41.3628 34.9107 40.0768L34.9107 40.073Z" fill="rgb(0,0,0)" fill-rule="nonzero" />
	<path id="Vector" d="M60.8596 0L66.481 0L66.481 16.3225C67.5363 14.8868 68.8811 13.7159 70.5235 12.81C72.162 11.904 73.9591 11.4511 75.9109 11.4511C79.2671 11.4511 82.0044 12.3877 84.1109 14.2572C86.2214 16.1267 87.2727 18.6488 87.2727 21.8234L87.2727 41.4357L81.5918 41.4357L81.5918 23.071C81.5918 20.9559 80.9848 19.2937 79.7749 18.0845C78.5649 16.8752 76.8828 16.2726 74.7366 16.2726C72.7848 16.2726 71.0472 16.9827 69.5238 18.3992C68.0004 19.8157 66.9849 21.5662 66.4771 23.643L66.4771 41.4395L60.8557 41.4395L60.8557 0L60.8596 0Z" fill="rgb(0,0,0)" fill-rule="nonzero" />
	<path id="Vector" d="M99.4637 40.0154C97.1588 38.6949 95.3617 36.8714 94.0763 34.5452C92.787 32.2227 92.1443 29.6047 92.1443 26.6949C92.1443 23.7851 92.787 21.2246 94.0763 18.9022C95.3656 16.5797 97.1628 14.7563 99.4637 13.4319C101.769 12.1114 104.363 11.4473 107.255 11.4473C110.147 11.4473 112.694 12.1075 115.015 13.4319C117.34 14.7563 119.153 16.5759 120.462 18.9022C121.771 21.2246 122.425 23.8235 122.425 26.6949C122.425 29.5663 121.771 32.1728 120.462 34.5183C119.153 36.8599 117.336 38.6949 115.015 40.0154C112.69 41.3398 110.104 42 107.255 42C104.407 42 101.769 41.3398 99.4637 40.0154ZM112.055 35.8235C113.46 34.9175 114.563 33.6699 115.364 32.0807C116.165 30.4953 116.566 28.6987 116.566 26.6949C116.566 24.691 116.165 22.8983 115.364 21.3091C114.563 19.7237 113.452 18.4837 112.024 17.597C110.599 16.7102 109.009 16.2649 107.251 16.2649C105.494 16.2649 103.855 16.7102 102.447 17.597C101.043 18.4837 99.9477 19.7237 99.1662 21.3091C98.3846 22.8945 97.9959 24.691 97.9959 26.6949C97.9959 28.6987 98.3846 30.4914 99.1662 32.0807C99.9477 33.6661 101.039 34.9137 102.447 35.8235C103.851 36.7294 105.454 37.1824 107.251 37.1824C109.048 37.1824 110.647 36.7294 112.055 35.8235Z" fill="rgb(0,0,0)" fill-rule="nonzero" />
	<path id="Vector" d="M133.26 40.0154C130.955 38.6949 129.158 36.8714 127.872 34.5452C126.583 32.2227 125.94 29.6047 125.94 26.6949C125.94 23.7851 126.583 21.2246 127.872 18.9022C129.162 16.5797 130.959 14.7563 133.26 13.4319C135.565 12.1114 138.159 11.4473 141.051 11.4473C143.943 11.4473 146.49 12.1075 148.811 13.4319C151.135 14.7563 152.948 16.5759 154.258 18.9022C155.567 21.2246 156.221 23.8235 156.221 26.6949C156.221 29.5663 155.567 32.1728 154.258 34.5183C152.948 36.8599 151.132 38.6949 148.811 40.0154C146.486 41.3398 143.899 42 141.051 42C138.203 42 135.565 41.3398 133.26 40.0154ZM145.855 35.8235C147.26 34.9175 148.362 33.6699 149.164 32.0807C149.965 30.4953 150.366 28.6987 150.366 26.6949C150.366 24.691 149.965 22.8983 149.164 21.3091C148.362 19.7237 147.252 18.4837 145.824 17.597C144.399 16.7102 142.809 16.2649 141.051 16.2649C139.294 16.2649 137.655 16.7102 136.247 17.597C134.843 18.4837 133.748 19.7237 132.966 21.3091C132.185 22.8945 131.796 24.691 131.796 26.6949C131.796 28.6987 132.185 30.4914 132.966 32.0807C133.748 33.6661 134.839 34.9137 136.247 35.8235C137.651 36.7294 139.254 37.1824 141.051 37.1824C142.848 37.1824 144.447 36.7294 145.855 35.8235Z" fill="rgb(0,0,0)" fill-rule="nonzero" />
	<path id="Vector" d="M161.379 41.4319L161.379 0L167 0L167 41.4319L161.379 41.4319Z" fill="rgb(0,0,0)" fill-rule="nonzero" />
</svg>
